FILE "Lovely Pop 2 in 1 - Jan Jan Koi Shimasho (Japan) (Track 1).bin" BINARY
  TRACK 01 MODE1/2352
    INDEX 01 00:00:00
FILE "Lovely Pop 2 in 1 - Jan Jan Koi Shimasho (Japan) (Track 2).bin" BINARY
  TRACK 02 AUDIO
    INDEX 00 00:00:00
    INDEX 01 00:02:00
FILE "Lovely Pop 2 in 1 - Jan Jan Koi Shimasho (Japan) (Track 3).bin" BINARY
  TRACK 03 AUDIO
    INDEX 00 00:00:00
    INDEX 01 00:02:00
